<svg width="0" height="0" class="hidden">
  <symbol xmlns="http://www.w3.org/2000/svg" viewBox="0 294.3 64 64" id="babel">
    <path d="M56.756 314.713c-.167.762-.438 1.326-.804 1.702l-.26-.167c.282-.72.418-1.138.407-1.242l-.073-.115c-.094.01-.22.26-.376.762l-.136.01a.59.59 0 00-.073-.24l-.063.01-2.923 7.673c-.2.68-.386 1.054-.543 1.127.01.073.052.115.136.104.03.334-.052.658-.23.98-.532 1.514-.877 2.35-1.054 2.495l.115.72c.01.073-.03.125-.115.125l-.125.01c-.02-.198-.094-.292-.22-.282l-.063.01c-.157.25-.282.543-.365.877l.125-.01c.167-.104.24-.23.23-.386l.25-.02.136.052c-.115.177-.167.324-.157.428l.063.115-.157.376.01.063a.77.77 0 01.47.136.9.9 0 00.376-.146 35.32 35.32 0 011.587-.021l.46-.157 1.138-.03.198-.02.104-.073.01.063c.5-.042.543-.01.94.042l.01.063-.282.02.01.115a.39.39 0 00.22-.084c.073-.01.115.03.125.115-.115.01-.24.042-.386.084l-.125-.042c-.198.052-.157.063-.282.073l-.198-.042c0 .03-.01.052-.042.063.01.073.042.115.115.104l.24-.02-.104-.042c0 .03.02.052.063.052l1.033-.094.397-.084c0 .03.02.052.052.052l.188-.073.355-.03c.282-.02.27-.042.866-.136 0-.03.01-.052.042-.052v.052l1.274-.26-.052-.125c-.324.073-.313.03-.48.052l-.866.042-.01-.063.48-.063.177-.01.094-.073.01.063c.68-.063.92.115 4.082-.553.167-.01.157-.157.26-.45a.3.3 0 01-.167-.042c-.26.104-.397.052-.898.136-.042 0-.073-.03-.094-.115v-.052l.48.02c.084-.01.27-.02.522-.167.052.03-.042.063.01.052l.084-.01c.052 0 .073-.042.073-.125l-.052-.115c-.324.03-.48.042-.74.188l-.01-.063-.397.042c-.01-.125-.042-.177-.094-.177l-.2.02c-.24.02-.355.01-.47.104 0-.042-.02-.063-.042-.063l-.23.02-.136.073c0-.042-.02-.063-.042-.063l-.084.073-.01-.063-.313-.02-.073.01.01.115.167.042.146-.01c.052.03.115.042.177.042l.136-.063v.052c-.74.188-.74.146-1.253.24-.063-.042-.104-.052-.125-.052-.052.052.063.01.03.01-.084.01-.125-.03-.136-.104l.26-.03c.02 0 .03.02.177.052.2-.104.22-.146.334-.157l-.01-.115c-.73.146-.438.052-1.357.125h-.042l-.01-.115c1.18-.146.783-.063 1.18-.177 0 .042.02.063.042.063a.245.245 0 01.167-.073l.084-.01c.407-.03.553.052 1.367-.177v.052l.136-.063.125-.01c-.01-.125.177-.136.23-.146l-.01-.125c-1.43.292-1.806.2-2.203.324v-.052c-.376.073-.386.03-.48.042-.03 0-.073.03-.115.073 0-.042-.02-.063-.052-.063-.063 0-.03.02-.084.073l.084-.073-1.242.198c0-.03-.02-.052-.052-.052-.626.136-.46.157-1.305.23a.296.296 0 00-.157.063c0-.03-.02-.052-.063-.052l-.522.042-.344.084c0-.03-.02-.052-.063-.052a2.886 2.886 0 01-.5.094h-.01c-.084.01.042-.02-.02-.052l-.104.063c-.157.01-.073-.01-.595 0l-.92.136-.344-.02c0 .03-.01.052-.052.063-.386-.052-.585-.115-.595-.188.052-.365.136-.553.27-.574l.063-.01-.063.125.063-.01c.125-.063.177-.125.177-.188l-.01-.125-.125.01-.01-.115a.468.468 0 01.03-.24l.282-.45.01.115.136-.01-.01-.115-.073-.115c.094-.084.177-.136.24-.136l-.01-.063-.177.01-.01-.177c.355-.752.532-1.2.522-1.305l.125.052c.084-.01.125-.052.115-.136l-.125.01v-.052a.49.49 0 01.042-.251c.198-.198.282-.407.26-.626.042 0 .063.02.063.063.167-.094.292-.344.386-.762.292-.532.7-1.597 1.253-3.184 1.044-2.808 1.002-3.1 1.148-3.768l-.125.01a.388.388 0 01-.052.24.75.75 0 00-.198-.052v-.052c-.02-.24.084-.532.313-.877h.052l.104.407.125-.01a6.56 6.56 0 01.094-.491c-.01-.063-.052-.094-.146-.104l-.115.073c-.01-.084 0-.303.01-.668zm-1.503 1.806l.063-.01c-.094.167-.167.26-.24.27l-.01-.177a.445.445 0 00.188-.084zm-.522 1.253c.125-.512.25-.804.365-.877l.01.063c-.063.48-.167.72-.313.74l.02.303c-.115.157-.167.282-.157.376l-.063.01-.03-.418c.063-.01.125-.073.167-.198zm-.198.68c.01.073-.042.24-.136.5l-.063.01-.01-.177c.073-.2.146-.313.2-.324zm-3.434 7.6l.063.115c.094-.01.136-.052.125-.125l-.01-.063-.063.01zm1.65 1.367v.052c.094-.01.188-.177.27-.5l-.125-.042c-.104.282-.146.438-.146.5zm10.564.365v.052l-.104.125.198-.073h.02l-.01-.115h-.042l-.073.063c0-.03.22-.094.052-.125-.03.052.052.063-.042.073zm.407.376l.282-.02c-.01-.073-.188-.094-.25-.094H63.7zm-5 .104l.084.104c0-.03.01-.052.042-.052l.063.115-.26-.03c-.02-.084.01-.125.073-.136zm-.856.094c.094-.01.157.052.157.136h-.292v-.052c.03-.01.084-.03.136-.084zm.668-.03l.01.063-.24.02-.01-.063zm-2.422.25c0 .03.02.052.063.052l.532-.104c.063-.01.094.03.104.104l-1.075.094.104.052-.01-.063-.407.03-.01-.063.365-.03zm1.107-.094v.052c-.03 0 .104.01.042.063-.23-.02-.24-.042-.407-.03v-.052zm.27-.03v.052l-.198.02v-.052zm-6.68 1.065l.01.177c-.063.01-.115-.03-.136-.115v-.052zm8.936-.157l.01.115.2-.02-.084-.052.01.063.2-.084c1.43-.157 1.597-.094 1.576-.26v-.052c-1.44.324-1.628.26-1.93.292zm2.234-.198l.2.042-.01-.115-.2-.042zm-6.18.407c.063.03-.073.063.01.052l.73-.063.01.063c-.2.02-.344.052-.386.094 0-.042-.02-.063-.063-.063l-.313.03-.01-.063c.084-.01-.042-.01.02-.052zm3.382-.084l.063.115c.24-.052.104-.042.167-.094 0 .042.02.063.042.063l.167-.01-.01-.125-.438-.01zm-4.134.45h-.042l-.01-.115h.042zm-3.267.397l.01.063 1.92-.157-.01-.115-1.535.125-.324-.042zm2.14-.115h.02l-.01-.115h-.02zm-29.23-10.084l-2.1 2.683c-.553.574-.825.92-.793 1.033-.146.094-.2.188-.188.292-.042.01-.073-.01-.084-.052-.24.386-.585.626-1.054.74l-.5.115c-.063.01-.094.063-.094.146l.01.063.188-.042.01.052-.418.157-.74.167-.386.02c-.052.052.303-.01.167.03l-.48.115c-.292.073-.46.042-.48-.073l-.052.01c.03.115 0 .188-.084.2l.094-.02-.042-.177-.877.2.094.042c-.01-.042-.052-.052-.136-.03l-.115.094-.136-.03c-.125.073-.2.115-.23.115l-.136-.03c-.365.2-.094.2-.115.2l.03.115.2-.052.324-.02-.03.136c-1.2.313-.324.136-.647.2l-.063.01.03.115.188-.042.01.063c-.24.052-.376.104-.418.157l-.01-.063c-.313.073-.626.313-.94.7.052.23-.626.512 2.568-.23l.376-.02c-.01-.042.01-.063.052-.073.355-.042.188.02.407-.03l.7-.157-.146.084c-.01-.03.01-.052.042-.063.084.02.167.01.26-.01l.042.177-2.725 4.322-.605.752-.292.992.052-.01.292-.125-.094.386.03.115.084.104c-.042.01-.052.03-.042.073v.063l.125-.03c.177-.157.25-.303.23-.428.198.03.324.042.386.03l.01.063c-.115.03-.177.125-.188.282l.01.063.063-.01c.992-1.075 3.403-4.76 5.345-7.265-.063-.27.95-.647 3.038-1.127l.063-.01c.073.324-.084 1.117-.48 2.38l-.365 1.242-.47 1.64-.74 2.422a21.492 21.492 0 00-1.096 3.925c.042-.01.115 0 .198.02l.104-.094c.01.042.03.052.084.052l-.042-.177.324-.01c.094-.02.177-.146.24-.365-.01-.324.052-.5.198-.543l.365-1.18c.188-.772.324-1.2.418-1.326.282-1.002.48-1.524.616-1.555l.03.125-.198.532c-.355 1.576-.72 2.83-1.086 3.748l.104.46.063-.01c.887-1.9 2.15-5.658 3.8-11.274a1.49 1.49 0 01.7-1.148l-.094-.094-.01-.052c.188-.042.324-.115.397-.22-.01-.042-.177-.104-.5-.188l.98-4.196c.292-1.253.5-2.35.595-3.3l-.01-.063a2.265 2.265 0 01-.574-.532v-.25l-.01-.052-.052.01c-.605.92-1.816 2.516-3.6 4.8zm1.388.95c.052.22-.03.626-.24 1.22-.063.752-.334 1.18-.804 1.294l-.01-.063-.418.157-.188.042a.457.457 0 01-.26-.01l-.042-.167c-.01-.063.585-.898 1.816-2.495zm-.96 2.6l.136-.03.03.115-1.096.324a.47.47 0 00-.177.104c-.01-.042-.094-.042-.26-.01-.03-.115.428-.282 1.367-.5zm-6.482 1.754l.146-.03-.03-.125-.146.03zm1.9-.5l.03.115-.313.02-.01-.063zm-3.654 1.2l.01.063-.198.042-.01-.063zm-.365.762l.01.052-.24.052-.03-.115zm.574-.125l.01.052-.438.104-.01-.052zm.762-.125l.01.063-1.148.26-.03-.115c.668-.115.595-.073 1.17-.2zm5.752-1.336l.094.104c-.136.03-.24.073-.292.125l-.136-.02a3.21 3.21 0 01-.543.177l-.125.03c-.073.02-.125-.01-.157-.084l.866-.198zm.616-.136l.616-.146.01.063a3.509 3.509 0 00-.783.25l-.01-.063c.052-.01.104-.052.167-.104zm-6.472 1.754l.292-.063.03.115c-.125.03-.03.03-.188.104-.303.03-.24-.01-.72.104l-.01-.063zm.793-.136c.084-.02.136.01.146.094l-.177.042c-.073.02-.125-.01-.157-.094zm-3.267 6.597l.01.063c.084-.02.115-.063.094-.146l-.01-.063c-.073.02-.104.063-.094.146zm.25 1.044c.02.073.063.104.146.084s.115-.063.094-.146l-.01-.063-.125.03zm6.66 1.795c.084-.02.125.01.146.084l.01.063-.24.052a.419.419 0 00.01-.188z"></path>
    <path d="M31.87 316.916a20.37 20.37 0 01-1.848 1.169l.01.115c.042 0 .104-.03.188-.084.084-.01.125.03.136.104l.115-.063h.052v.052c.01.063-.428.397-1.284 1.002l.063.125h-.052l-.136-.052c0 .042-.052.073-.177.084v.052l.136.167a.46.46 0 01-.198-.052c-.282.02-.553.23-.825.605l.063.115c.24-.22.376-.334.418-.334l.01.177c-.042 0-.104.03-.188.084l.157.22a4.74 4.74 0 01.929-.793c.167.052.26.104.26.157l.125-.01c.94-.7 1.858-1.18 2.766-1.482v.115c-.167.25-.282.376-.344.386.01.084.03.157.073.23.01.157-.397 1.2-1.232 3.132-1.9 4.478-3.507 7.798-4.802 9.948 0 .042.03.104.084.177.324-.073.522-.157.605-.23h.052l.01.115.136-.01.115-.063c0 .03.042.052.125.042l.01.125c.01.115-.063.292-.198.543-.136.146-.282.46-.428.93l.01.063.125-.01c.522-.585.908-1.148 1.18-1.712 1.514-.45 2.662-.877 3.466-1.305.814-.073 1.42-.282 1.837-.626l-.01-.063-.313.094-.063.01-.01-.063c.595-.084 1.002-.22 1.22-.397 1.148-.887 2.015-1.514 2.6-1.88 1.816-1.336 2.672-2.6 2.568-3.84-.01-.125-.407-.626-1.2-1.503-.01-.167.26-.407.814-.72l1.587-1.378c.355-.45.564-1.18.626-2.192l-.02-.23c-.063-.7-.574-1.263-1.535-1.702-.574-.386-1.597-.595-3.07-.637-1.2.084-2.787.522-4.76 1.294zm8.497.084l-.063.125-1.754-.74c1.18.052 1.785.25 1.816.616zm-7.12 4.885c.125-.658.26-1.023.407-1.107l1.326-2.965c-.01-.177.26-.324.835-.428l.188-.02.01.177c.564-.094.908-.146 1.054-.157 1.044-.094 1.587.125 1.628.626l.125-.01-.02-.282.125-.01c.303.167.46.365.48.605.01.167-.073.376-.25.626-.084.01-.125-.052-.136-.167l-.125.01-.042.355c-.532.804-.908 1.2-1.148 1.232-.2.292-.344.438-.407.438-.167.198-.616.543-1.357 1.013-.25.02-1.16.376-2.735 1.065a.5.5 0 00-.25-.03l-.01-.115c-.02-.22.084-.5.303-.856zm7.286-3.654l.01.125c-.063 0-.177-.188-.365-.564l-.01-.115c.115-.01.24.177.365.553zm-11.566 1.42l.01.063a.527.527 0 00-.188.073h-.052l-.01-.115zm3.83-.094l.01.177c-.063 0-.136.094-.23.25l-.01-.115c.104-.136.157-.24.157-.313zm-.595 1.232l.02.23-.063.01-.02-.23zm-.146.428c-.01.198-.063.303-.157.313l-.063.01c.073-.136.104-.24.094-.313zm-.27.616l.01.063-.104.188-.125.01-.01-.063c.125-.01.188-.073.177-.198zm-.26.553l-.042.303h-.052l-.02-.303zm6.43.22l.26.157c.01.073-.03.125-.115.125-.115-.073-.198-.104-.26-.094v-.177zm-5.032.668l.01.115-.25.02-.01-.115zm4.06.428c.177.084.26.157.27.22v.052c-.167.01-.324-.073-.47-.26zm-5.23 1.284c.7-.063 1.827-.397 3.36-1.002l.386-.03c.772-.063 1.347.084 1.733.45l.02.23c-.282.814-.595 1.294-.94 1.44l-1.576 1.274c-1.18.772-1.816 1.16-1.92 1.17-1.88 1.033-3.048 1.566-3.507 1.608l-.063.01c.042-.22.877-1.93 2.505-5.146zm1.702-.68l.01.063-.25.02-.01-.063zm5.7-.26l.042.48c-.063.115-.115.177-.177.188l-.073-.814c.136.042.2.094.2.146zm-9.635 4.092c-.084.397-.167.605-.25.605v-.052c-.03-.188.052-.376.25-.553zm1.576 2.234c.46-.084 1.722-.74 3.8-1.983l.01.115c0 .052-.167.2-.532.46-1.044.522-1.67.866-1.858 1.044-1.138.397-1.702.647-1.7.74-1.013.397-1.67.7-1.994.877-.073.01-.188-.02-.324-.094-.02-.2.073-.365.27-.5a1.15 1.15 0 01.501.073c.188-.094.512-.198.98-.324l-.01-.115-.386.03c.042-.073.407-.24 1.086-.512l.188-.02v.052c-.324.03-.5.125-.543.292.01.073.052.115.136.104.26-.125.376-.22.376-.25zm-1.952-1.43v.052c.01.084-.03.136-.115.136l-.01-.063c0-.052.042-.104.125-.125zm2.965.814c-.146.01-.428.136-.846.365l-.063.01-.01-.115c.303-.03.574-.146.783-.355.084-.01.125.02.136.094zm-3.07.856l.188-.02.01.063a.527.527 0 00-.188.073l-.125.01c-.01-.063.03-.104.115-.125zm-1.263.7l.125.052c-.042.365-.157.553-.324.564a.807.807 0 00-.386-.084l-.01-.177c-.01-.063.03-.104.115-.125.084-.01.125.052.136.167.2-.26.324-.397.344-.397zm-20.47-14.917c-.7.522-1.524 1.033-2.432 1.535l.01.157c.063 0 .136-.042.24-.094.104-.01.167.03.167.136l.167-.094.084-.01.01.073c.01.073-.564.522-1.702 1.326l.094.146-.084.01-.177-.063c0 .052-.073.084-.24.094l.01.084.188.2a.656.656 0 01-.25-.052c-.365.03-.73.303-1.086.804l.094.146c.313-.282.5-.428.543-.428l.02.23c-.052 0-.136.042-.24.094l.198.292a5.84 5.84 0 011.242-1.033c.23.063.344.125.344.2l.167-.01c1.22-.908 2.432-1.555 3.633-1.962l.01.157c-.22.334-.376.5-.46.512a.62.62 0 00.115.303c.02.2-.522 1.576-1.628 4.123-2.534 5.9-4.632 10.264-6.334 13.104 0 .052.042.136.094.23.418-.104.7-.198.804-.303l.094-.01.01.157.157-.01.167-.094c0 .052.063.073.167.063l.01.157c.01.157-.073.397-.27.72-.177.198-.355.605-.553 1.22v.073l.157-.01c.68-.762 1.2-1.514 1.555-2.244 1.994-.585 3.507-1.16 4.562-1.722 1.054-.094 1.87-.365 2.4-.825l-.01-.084-.397.115-.094.01-.01-.084c.772-.115 1.315-.292 1.608-.522 1.514-1.17 2.65-1.994 3.424-2.484 2.4-1.754 3.518-3.445 3.382-5.052-.01-.167-.543-.825-1.576-1.973-.02-.22.344-.532 1.075-.95l2.077-1.827c.46-.595.74-1.555.835-2.88l-.03-.313c-.084-.93-.752-1.68-2.025-2.255-.752-.512-2.098-.783-4.04-.814-1.597.146-3.706.7-6.295 1.712zm11.2.136l-.063.157-2.317-.97c1.545.063 2.338.334 2.38.814zm-9.374 6.43c.157-.856.334-1.347.532-1.46l1.733-3.894c-.02-.24.344-.428 1.107-.553l.25-.02.02.22 1.388-.198c1.378-.115 2.088.157 2.15.835l.157-.01-.03-.397.167-.01c.407.22.626.5.647.814.02.22-.094.5-.355.814-.104.01-.167-.063-.177-.22l-.167.01-.042.47c-.7 1.044-1.2 1.576-1.514 1.608-.282.386-.46.585-.532.595-.22.26-.814.7-1.795 1.336-.324.03-1.524.5-3.6 1.4a.58.58 0 00-.334-.052l-.01-.146c-.02-.303.104-.68.407-1.138zm9.593-4.802l.01.146c-.084.01-.24-.24-.47-.74l-.01-.146c.146-.02.303.23.47.74zm-15.24 1.858l.01.073c-.052 0-.136.042-.24.094l-.084.01-.01-.146zm5.042-.125l.02.23c-.073.01-.177.115-.303.334l-.01-.157c.146-.177.22-.313.22-.407zm-.772 1.628l.03.313-.084.01-.03-.313zm-.198.564c-.02.26-.084.397-.22.407h-.084c.094-.177.146-.303.136-.397zm-.344.814l.01.073-.146.25-.157.01v-.073c.157-.01.23-.094.22-.25zm-.355.73l-.042.386-.084.01-.03-.386zm8.466.282l.344.2c.01.104-.042.167-.146.177-.146-.094-.26-.136-.344-.136l-.02-.23zm-6.63.887l.01.146-.324.03-.01-.146zm5.345.543c.23.104.344.2.355.292l.01.073c-.22.02-.418-.094-.605-.344zm-6.9 1.7c.94-.084 2.422-.522 4.436-1.315l.5-.042c1.023-.084 1.785.104 2.286.585l.03.313c-.376 1.086-.793 1.712-1.242 1.9l-2.088 1.66c-1.555 1.023-2.4 1.535-2.516 1.545-2.474 1.367-4.02 2.067-4.614 2.12l-.094.01c.084-.292 1.18-2.547 3.3-6.785zm2.255-.887l.01.073-.334.03-.01-.073zm7.495-.334l.052.616c-.073.167-.146.25-.23.25l-.094-1.086c.177.073.26.146.27.22zm-12.704 5.386c-.104.532-.22.804-.334.814l-.01-.073c-.02-.27.094-.512.344-.74zm2.088 2.944c.605-.115 2.265-.992 5-2.6l.01.146c.01.063-.23.26-.7.605-1.388.68-2.203 1.148-2.443 1.388-1.503.522-2.244.846-2.234.97-1.336.532-2.213.92-2.63 1.16-.094.01-.24-.03-.428-.115-.02-.27.094-.5.365-.668.23-.02.46.01.668.104.25-.125.68-.27 1.294-.418l-.01-.157-.5.042c.063-.084.532-.303 1.43-.668l.25-.02.01.073c-.418.03-.658.167-.7.386.01.094.063.146.167.136.303-.2.46-.324.46-.355zm-2.568-1.9l.01.073c.01.104-.042.167-.146.177l-.01-.073c-.01-.094.042-.157.146-.177zm3.904 1.065c-.198.02-.564.177-1.117.5l-.084.01-.01-.157a1.58 1.58 0 001.023-.47c.115-.02.177.03.188.125zm-4.05 1.127l.25-.02v.084c-.063 0-.136.042-.24.094l-.157.01c-.01-.073.03-.136.136-.167zm-1.66.93l.177.073c-.063.47-.198.7-.438.73a1.07 1.07 0 00-.512-.104l-.02-.23c-.01-.094.042-.146.157-.177.104-.01.167.063.177.22.282-.344.438-.512.46-.512zm46.307-20.512l-.136-.052-2.223.344a.557.557 0 00-.303-.052c-.125.01-.313.052-.595.125l-1.075.45.084.136c.052 0 .125-.03.22-.084l.376.03-.052.355c-.344.157-.553.386-.605.7-.522.23-.783.397-.783.5l.01.063.084-.01.146-.073.167.198.02.27c.01.084-.877 1.952-2.65 5.595-1.535 3.507-2.338 5.428-2.422 5.773-.522.146-.835.365-.92.647.01.094.167.146.47.177l.01.136-.136.23.02.27c.01.146.397.25 1.148.334 0-.052.02-.073.073-.084.01.167-.03.5-.146 1.002l.084-.01c.313-.428.46-.72.45-.887l.063-.01c.073-.01.157.084.25.27-.094.042-.428.793-.992 2.265l.084.136.084-.01c.7-1.764 1.138-2.745 1.315-2.933l4.75-.48.136-.084c0 .052.03.073.084.063l.146-.01.136-.084c0 .052.03.073.084.063l1.702-.146c.45-.042.668-.177.647-.407-.01-.063.26-.136.804-.2a.82.82 0 01.23.042c0-.042.26-.084.804-.136.01-.282.104-.438.27-.45v-.136c-.146.01-.324.052-.522.115-.355-.02-.585-.042-.68-.084a.533.533 0 01-.22.084l-1.2.042-.146.073c0-.042-.03-.063-.084-.052l-.063.01-.157.073c0-.042-.125-.073-.376-.104l-.146.084-.292.02-.01-.073c1.524-.167 2.286-.376 2.265-.626.094-.01.146.042.157.136l.45-.115-.01-.136-3.654.104c0 .052-.02.073-.073.084l-.45-.042a.51.51 0 00-.282.104l-.167-.063c-.46.042-.804.094-1.033.167a7.05 7.05 0 00-1.044.01l-.825.073-.376-.042c-.02-.24.45-1.43 1.42-3.57.282-.72.543-1.17.783-1.336.052 0 .125.01.23.052l.585-.198.303.052c.5-.042 1.086-.188 1.754-.428.167-.01.292 0 .376.03l.45-.104 1.326-.115a9.35 9.35 0 001.837-.376l-.01-.136c-.25.02-.376-.02-.386-.115-.02-.188-.198-.26-.543-.23l-.01-.136.365-.104.96-.084-.01-.136c-.042 0-.23 0-.595-.01l-.01-.146.376-.03c.094-.01.146-.063.136-.146-.5.01-.752-.01-.752-.073-3.476.167-5.2.198-5.22.094-.052 0-.125.03-.22.094l-.094-.146c.92-1.952 1.46-2.944 1.618-2.954.01.073-.03.198-.115.365l.01.063h.146c.365-.877.668-1.326.93-1.347 1.086-.094-.157-.167 2.182-.532.094.042.167.063.2.052.92-.188 2.192-.376 3.83-.574l-.01-.136-.877.084-.01-.136a.45.45 0 00.261-.104l.01.073c.052 0 .115-.03.198-.094.146-.01.26 0 .344.042a4.69 4.69 0 01.731-.146l.543-.052c.136-.084.198-.157.188-.23v-.063a2.01 2.01 0 01-.48-.031c-.01-.073.03-.125.125-.146l1.013-.094.47-.115c0 .052.03.073.063.073.052 0 .115-.03.198-.094.24.03.386.042.418.03.188-.177.407-.324.647-.418-.104-.104-.157-.188-.167-.26l-.68.063a.512.512 0 00-.073-.2c0-.063.146-.125.46-.188l.136.052.125-.073c0 .042.03.063.073.052l.125-.073c0 .042.03.063.073.052l.063-.01-.01-.136c-.094.01-.344.01-.74 0l-.125.084-.01-.073-5.418.45c-.052 0-.282 0-.668-.01 0 .052-.042.084-.136.084l-.136-.063-.47.115c-.104.01-.292 0-.553-.02a.53.53 0 01-.261.104c-.104.01 2.526-.146 2.443-.188l-.407.115-.063.01c-.167.01-.376.01-.626-.02a.63.63 0 01-.334.104.45.45 0 01-.27-.052 13.55 13.55 0 01-1.013.219zm.167.418c0 .052.052.073.136.063v.136l-.136.01a.45.45 0 01-.27-.052.48.48 0 01-.261.104h.042l-.376-.042-.01-.063c.46-.03.605-.084.866-.157zm.344-.03l.073-.01.01.136-.2.02c0-.073.03-.125.125-.146zm.804-.084l.01.073c-.157.01-.355.052-.595.125l-.073.01.063-.146zm-5.93.68l.23-.02-.01-.136-.23.02zm1.64-.146l.084-.01.157.063c.01.094-.042.146-.136.146l-.23.02-.01-.073c-.01-.073.042-.115.136-.146zm5.25.303v.063l-.47.042v-.063zm-1.347.198l.01.073-.27.02-.01-.073zm1.294.104l.94-.157.48.02.01.073a2.28 2.28 0 00-.595.125c0-.052-.094-.094-.282-.115l-.74.2c-.146-.084-.22-.146-.22-.188zm-.93.2c.094-.01.136.03.146.125l-.397.042-.01-.136zm-.825-.042l.01.073 2.443-.115-.01-.073zm.146.188v.063l-.532.052v-.063zm-3.497 2.766l.01.073.157-.01a.54.54 0 01.052-.22l-.01-.136c-.084.01-.157.104-.2.292zm-5.376 7.808l.01.063c.01.094-.042.146-.146.157l-.01-.063c-.01-.084.042-.125.146-.157zm-.136.292c.01.136-.084.47-.27 1.013l-.23.02c-.01-.094.115-.428.355-1.013zm2.516 2.182c.01.073-.115.157-.355.24l-.46-.03-.146.01-.01-.136zm.45.042l.01.063-.376.03-.01-.063z"></path>
  </symbol>
  <symbol xmlns="http://www.w3.org/2000/svg" preserveAspectRatio="xMidYMid" viewBox="0 0 256 212" id="bem">
    <path d="M0 32.692h59.85v17.603H0V32.692zM0 0h59.85v17.603H0V0zm107.38 65.132H0v17.603h103.356c11.316 0 37.72.251 47.528 16.094v-9.807c-4.778-15.592-18.86-23.89-43.505-23.89zm.25 32.691H0v17.603h103.356c25.147 0 40.99 1.006 47.528 4.527v-7.796c-5.03-12.322-26.153-14.334-43.253-14.334zm-.25 82.986H0v-17.603h103.356c11.316 0 37.72-.251 47.528-16.094v9.807c-4.778 15.592-18.86 23.89-43.505 23.89zm.25-32.691H0v-17.603h103.356c25.147 0 40.99-1.006 47.528-4.527v7.796c-5.03 12.322-26.153 14.334-43.253 14.334zm69.407 63.12H256v-10.814h-76.7c-6.79 0-22.883-.251-28.667-9.556v6.036c2.766 9.304 11.316 14.334 26.404 14.334zm-.251-19.867h78.963v-10.813H179.3c-15.34 0-24.896-.503-28.668-2.766v4.778c3.017 7.544 15.842 8.801 26.153 8.801z" fill="#010101"></path>
  </symbol>
  <symbol xmlns="http://www.w3.org/2000/svg" viewBox="0 0 120 60" id="eslint">
    <path d="M20.07 24.484l8.767-5.06a.71.71 0 01.709 0l8.767 5.06a.71.71 0 01.355.614V35.22a.71.71 0 01-.355.614l-8.767 5.06a.71.71 0 01-.709 0l-8.767-5.06a.71.71 0 01-.355-.614V25.098a.71.71 0 01.355-.614" fill="#8080f2"></path>
    <path d="M51.984 29.094L41.5 10.872c-.38-.66-1.083-1.145-1.844-1.145h-20.95c-.76 0-1.464.486-1.845 1.145L6.397 29.054a2.17 2.17 0 000 2.15L16.87 49.278c.38.66 1.084.996 1.845.996h20.95c.76 0 1.464-.327 1.844-.986l10.475-18.103c.38-.66.38-1.43 0-2.1M43.3 37.848c0 .268-.16.516-.394.65l-13.342 7.698a.76.76 0 01-.755 0l-13.353-7.698a.77.77 0 01-.394-.65V22.46c0-.268.16-.516.392-.65l13.342-7.698a.76.76 0 01.754 0L42.914 21.8a.77.77 0 01.396.65z" fill="#4b32c3"></path>
    <path d="M57.536 37.44V23.084h8.273v1.532h-6.456v4.5h5.45v1.554h-5.45v5.2h6.675v1.554zm15.524.264q-1.5 0-2.8-.57-1.3-.57-2.232-1.554l1.094-1.27q.766.8 1.795 1.313 1.05.48 2.167.48 1.423 0 2.2-.635.788-.657.788-1.707 0-.547-.197-.92-.175-.394-.503-.657-.306-.285-.744-.503-.438-.22-.94-.46l-2.057-.897q-.503-.22-1.03-.525-.525-.306-.94-.744-.416-.438-.678-1.03-.263-.613-.263-1.4 0-.8.328-1.5.35-.7.94-1.204.613-.525 1.423-.8.832-.285 1.817-.285 1.3 0 2.386.503 1.094.48 1.86 1.27L76.5 25.8q-.657-.635-1.466-.985-.788-.372-1.795-.372-1.204 0-1.948.57-.722.547-.722 1.532 0 .525.197.897.22.35.57.635.35.263.766.48.416.197.854.372l2.035.875q.613.263 1.16.613.547.328.94.788.394.438.613 1.05.24.6.24 1.38 0 .854-.35 1.598-.328.744-.963 1.313-.635.547-1.532.875-.897.306-2.035.306zm7.687-.264V23.084h1.817v12.803h6.28v1.554zm10.47 0V26.805h1.795V37.44zm.92-12.825q-.525 0-.897-.328-.35-.328-.35-.832 0-.525.35-.832.372-.328.897-.328t.875.328q.372.306.372.832 0 .503-.372.832-.35.328-.875.328zm4.465 12.825V26.805H98.1l.153 1.532h.066q.766-.766 1.598-1.27.854-.525 1.97-.525 1.685 0 2.45 1.05.788 1.05.788 3.108v6.74h-1.795v-6.5q0-1.5-.48-2.167-.48-.678-1.532-.678-.832 0-1.466.416-.635.416-1.444 1.226v7.704zm15.318.264q-.854 0-1.444-.263-.57-.263-.94-.722-.35-.46-.503-1.116-.153-.657-.153-1.444v-5.9h-1.576v-1.357l1.663-.1.22-2.977h1.5v2.977h2.867v1.466h-2.867v5.9q0 .985.35 1.532.372.525 1.3.525.285 0 .613-.088t.6-.197l.35 1.357q-.438.153-.963.263-.503.13-1.007.13z" fill="#4d4d4d"></path>
  </symbol>
  <symbol xmlns="http://www.w3.org/2000/svg" viewBox="0 0 120 60" id="webpack">
    <path d="M50.245 34.84h2.78l2.834-9.444h-2.7l-1.678 6.7-1.8-6.7h-2.346l-1.806 6.7-1.662-6.7h-2.7l2.818 9.444h2.78l1.753-6.05zm5.76-4.695c0 2.834 1.93 4.93 4.968 4.93 2.35 0 3.613-1.41 3.974-2.076l-1.645-1.247c-.27.398-1.01 1.156-2.295 1.156-1.392 0-2.403-.903-2.457-2.167h6.65c.017-.182.017-.36.017-.543 0-3.087-1.662-5.04-4.587-5.04-2.693 0-4.624 2.13-4.624 4.985zm2.62-1.03c.108-1.082.866-1.914 2.042-1.914 1.14 0 1.968.758 2.022 1.914zm7.533 5.726h2.35v-.974c.253.307 1.193 1.2 2.8 1.2 2.7 0 4.624-2.04 4.624-4.948 0-2.925-1.77-4.964-4.48-4.964-1.624 0-2.565.903-2.8 1.227v-4.607h-2.49V34.84zm2.42-4.695c0-1.77 1.048-2.78 2.42-2.78 1.446 0 2.42 1.14 2.42 2.78 0 1.678-1.01 2.727-2.42 2.727-1.517 0-2.42-1.23-2.42-2.727zm8.325 8.072h2.49v-4.354c.236.307 1.173 1.2 2.8 1.2 2.7 0 4.48-2.04 4.48-4.964 0-2.888-1.914-4.948-4.624-4.948-1.608 0-2.548.903-2.8 1.227v-.994h-2.35v12.824zm2.42-8.126c0-1.5.903-2.727 2.42-2.727 1.41 0 2.42 1.048 2.42 2.727 0 1.645-.974 2.78-2.42 2.78-1.372 0-2.42-1.01-2.42-2.78zm7.802 1.823c0 1.985 1.624 3.16 3.54 3.16 1.085 0 1.806-.324 2.295-.85l.162.613h2.204v-5.98c0-2.113-.903-3.7-3.937-3.7a7.05 7.05 0 00-3.721 1.119l.94 1.7c.704-.36 1.57-.667 2.51-.667 1.102 0 1.715.56 1.715 1.392v.613c-.344-.236-1.085-.522-2.042-.522-2.204-.003-3.667 1.26-3.667 3.12zm2.49-.074c0-.775.667-1.318 1.624-1.318s1.645.49 1.645 1.318c0 .795-.688 1.3-1.624 1.3s-1.645-.522-1.645-1.3zm11.76 1.03c-1.57 0-2.7-1.14-2.7-2.743 0-1.517.994-2.764 2.602-2.764 1.065 0 1.8.522 2.204.903l.704-2.096a4.807 4.807 0 00-2.98-1.01c-2.872 0-5.022 2.113-5.022 4.985s2.096 4.93 5.04 4.93a4.755 4.755 0 002.942-1.01l-.667-2.04c-.418.34-1.176.846-2.133.846zm3.738 1.968h2.49v-4.877l3.16 4.877h2.925l-3.576-5.167 3.323-4.28h-2.8l-3.033 3.974v-7.583h-2.49z" fill="#1a1c1c"></path>
    <path d="M34.84 38.838l-13.23 7.485v-5.828l8.244-4.536zm.906-.82v-15.65l-4.84 2.797v10.06zm-28.53.82l13.23 7.485v-5.828L12.2 35.958zm-.906-.82v-15.65l4.84 2.797v10.06zm.568-16.665l13.57-7.676v5.633l-8.764 4.822zm28.3 0l-13.57-7.676v5.633l8.764 4.818z" fill="#8ed6fb"></path>
    <path d="M20.45 39.423l-8.135-4.475v-8.86l8.135 4.696zm1.162 0l8.135-4.47v-8.864l-8.135 4.696zm-8.746-14.358l8.166-4.488 8.166 4.488-8.166 4.714z" fill="#1c78c0"></path>
  </symbol>
  <symbol xmlns="http://www.w3.org/2000/svg" viewBox="0 0 120 60" id="less">
    <path d="M19.417 35.134c0-1.513-.973-3.134-3.783-3.242V28.11c2.8-.108 3.783-1.73 3.783-3.242 0-2.702-.432-4.43-.432-7.565 0-4.755 1.73-6.268 5.62-6.268H34.98v3.458h-8.43c-1.837 0-2.378.648-2.378 3.026l.216 7.133c0 3.35-1.08 4.647-3.242 5.188v.216c2.162.54 3.242 1.837 3.242 5.188l-.216 7.133c0 2.378.54 3.134 2.378 3.134h.865v3.35h-2.8c-3.89 0-5.62-1.513-5.62-6.268 0-3.134.432-4.755.432-7.457zm9.187-23.777h6.485v24.317c0 1.405.648 1.837 1.19 1.837.216 0 .432 0 .757-.108l.757 4.755c-.757.324-1.837.54-3.242.54-4.43 0-5.944-2.918-5.944-7.35zm18.265 8.43c6.16 0 9.295 4.54 9.295 10.483 0 1.19-.108 2.162-.216 2.702H42.654c.54 3.35 2.8 4.755 5.728 4.755 1.62 0 3.134-.432 4.755-1.405l2.162 3.89c-2.27 1.513-5.188 2.486-7.782 2.486-6.268 0-11.024-4.215-11.024-11.456-.108-7.025 5.08-11.456 10.375-11.456zm3.783 9.187c0-2.486-1.08-4.323-3.675-4.323-2.053 0-3.783 1.405-4.215 4.323zm9.187 6.7c1.945 1.513 3.783 2.27 5.62 2.27 1.945 0 2.8-.757 2.8-1.837 0-1.405-2.162-2.162-4.43-3.026-2.594-.973-5.728-2.8-5.728-6.377 0-4 3.35-6.81 8.322-6.81 3.35 0 5.836 1.405 7.673 2.8l-2.918 3.89c-1.62-1.19-3.026-1.837-4.647-1.837s-2.486.648-2.486 1.73c0 1.405 2.053 1.945 4.323 2.8 2.8.973 5.944 2.594 5.944 6.593s-3.134 7.025-8.97 7.025c-2.8 0-6.16-1.19-8.322-3.026zm17.617 0c1.945 1.513 3.783 2.27 5.62 2.27 1.945 0 2.8-.757 2.8-1.837 0-1.405-2.162-2.162-4.43-3.026-2.594-.973-5.728-2.8-5.728-6.377 0-4 3.35-6.81 8.322-6.81 3.35 0 5.836 1.405 7.673 2.8l-2.918 3.89c-1.62-1.19-3.026-1.837-4.647-1.837s-2.486.648-2.486 1.73c0 1.405 2.053 1.945 4.215 2.8 2.8.973 5.944 2.594 5.944 6.593s-3.134 7.025-8.97 7.025c-2.8 0-6.16-1.19-8.322-3.026zM93.45 45.4c1.837 0 2.378-.648 2.378-3.134 0-2.378-.216-4.54-.216-7.133 0-3.35 1.08-4.647 3.242-5.188v-.216c-2.162-.54-3.242-1.837-3.242-5.188 0-2.594.216-4.863.216-7.133 0-2.378-.432-3.026-2.378-3.026h-.865v-3.35h2.8c3.89 0 5.62 1.513 5.62 6.268 0 3.026-.432 4.755-.432 7.565 0 1.513.973 3.134 3.783 3.242v3.783c-2.8.108-3.783 1.73-3.783 3.242 0 2.8.432 4.43.432 7.565 0 4.755-1.73 6.268-5.62 6.268h-2.8V45.51z" fill="#214674"></path>
  </symbol>
  <symbol xmlns="http://www.w3.org/2000/svg" viewBox="0 0 204.8 105.765" id="mysql">
    <path d="M0 96.334h6.747V69.7l10.445 23.227c1.232 2.8 2.92 3.806 6.228 3.806s4.93-.995 6.164-3.806L40.03 69.7v26.644h6.748v-26.6c0-2.595-1.04-3.85-3.18-4.498-5.125-1.6-8.564-.216-10.12 3.244l-10.25 22.923L13.3 68.48c-1.492-3.46-4.995-4.844-10.12-3.244C1.038 65.885 0 67.14 0 69.734v26.6zm52.386-21.686h6.745v14.68c-.063.798.256 2.67 3.952 2.727 1.886.03 14.554 0 14.672 0v-17.48h6.76c.03 0-.007 23.834-.006 23.936.037 5.878-7.294 7.155-10.672 7.254H52.533v-4.54l21.342-.001c4.342-.46 3.83-2.617 3.83-3.344v-1.77h-14.34c-6.672-.06-10.92-2.973-10.973-6.323-.005-.3.144-14.995-.004-15.14z" fill="#00618a"></path>
    <path d="M89.716 96.334h19.398c2.27 0 4.477-.475 6.23-1.298 2.92-1.34 4.347-3.157 4.347-5.536v-4.93c0-1.947-1.622-3.763-4.8-4.974-1.687-.65-3.763-.995-5.774-.995h-8.175c-2.724 0-4.022-.822-4.346-2.638-.065-.216-.065-.4-.065-.606v-3.07c0-.173 0-.347.065-.563.324-1.384 1.038-1.774 3.438-2 .195 0 .454-.044.65-.044h19.268v-4.497h-18.944c-2.725 0-4.152.173-5.45.562C91.532 67 89.78 69 89.78 72.46v3.936c0 3.028 3.44 5.623 9.212 6.228.65.043 1.298.086 1.946.086h7.007c.26 0 .52 0 .714.044 2.14.173 3.05.562 3.698 1.34.4.4.52.78.52 1.2v3.936c0 .476-.324 1.082-.973 1.6-.584.52-1.557.865-2.855.952-.26 0-.454.043-.713.043h-18.62v4.498zm72.064-7.828c0 4.628 3.438 7.223 10.38 7.742a29.45 29.45 0 001.946.086h17.582v-4.498h-17.712c-3.957 0-5.45-.995-5.45-3.374v-23.27h-6.747v23.312zm-37.785.234V72.705c0-4.074 2.86-6.545 8.516-7.325a12.94 12.94 0 011.821-.13h12.807a13.87 13.87 0 011.886.13c5.656.78 8.516 3.25 8.516 7.325V88.74c0 3.305-1.215 5.074-4.015 6.227l6.646 6h-7.834l-5.377-4.854-5.413.343h-7.216c-1.235 0-2.535-.174-3.966-.564-4.3-1.17-6.37-3.424-6.37-7.152zm7.283-.4c0 .217.065.433.13.694.4 1.864 2.145 2.904 4.8 2.904h6.13l-5.63-5.083h7.834l4.9 4.433c.905-.482 1.5-1.22 1.7-2.167.065-.216.065-.433.065-.65V73.096c0-.173 0-.4-.065-.607-.4-1.733-2.146-2.73-4.746-2.73H136.22c-3 0-4.94 1.3-4.94 3.337v15.256z" fill="#e48e00"></path>
    <g fill="#00618a">
      <path d="M197.624 57.73c-4.147-.112-7.316.273-10.024 1.415-.77.325-1.997.333-2.123 1.298.423.443.49 1.105.825 1.65.647 1.047 1.74 2.45 2.713 3.184 1.064.803 2.16 1.663 3.303 2.36 2.03 1.238 4.296 1.945 6.25 3.184 1.152.73 2.296 1.65 3.42 2.476.555.408.93 1.042 1.65 1.297v-.118c-.38-.483-.477-1.147-.825-1.65l-1.533-1.533c-1.5-2-3.402-3.737-5.425-5.19-1.613-1.158-5.224-2.722-5.897-4.6l-.118-.118c1.144-.13 2.483-.543 3.54-.825 1.773-.475 3.358-.353 5.19-.825l2.477-.708v-.472c-.926-.95-1.586-2.207-2.595-3.066-2.64-2.25-5.523-4.495-8.49-6.37-1.646-1.04-3.68-1.714-5.425-2.595-.587-.296-1.618-.45-2.005-.944-.916-1.168-1.415-2.65-2.122-4-1.48-2.85-2.934-5.964-4.246-8.963-.895-2.045-1.48-4.062-2.594-5.897-5.355-8.804-11.12-14.118-20.048-19.34-1.9-1.11-4.187-1.55-6.605-2.123l-3.892-.236c-.792-.33-1.616-1.3-2.36-1.77-2.958-1.87-10.545-5.933-12.736-.6-1.383 3.373 2.067 6.664 3.302 8.374.866 1.2 1.976 2.543 2.594 3.892.407.886.478 1.775.826 2.713.857 2.3 1.603 4.823 2.712 6.958.56 1.08 1.178 2.218 1.887 3.184.435.593 1.18.854 1.297 1.77-.728 1.02-.77 2.6-1.18 3.892-1.843 5.812-1.148 13.035 1.533 17.337.823 1.32 2.76 4.152 5.425 3.066 2.33-.95 1.8-3.89 2.477-6.486.15-.59.058-1.02.354-1.415v.118l2.123 4.245c1.57 2.53 4.36 5.175 6.722 6.96 1.225.925 2.2 2.525 3.774 3.066v-.118h-.118c-.307-.48-.787-.677-1.18-1.06-.923-.905-1.95-2.03-2.713-3.066-2.15-2.918-4.048-6.11-5.778-9.435-.826-1.587-1.545-3.338-2.24-4.953-.268-.623-.265-1.564-.825-1.887-.763 1.184-1.887 2.14-2.477 3.538-.944 2.234-1.066 4.958-1.415 7.784-.207.074-.115.023-.236.118-1.642-.396-2.22-2.087-2.83-3.538-1.544-3.67-1.83-9.576-.472-13.798.35-1.092 1.94-4.534 1.297-5.543-.307-1.007-1.32-1.6-1.887-2.36-.7-.95-1.402-2.204-1.887-3.302-1.264-2.86-1.854-6.07-3.184-8.963-.636-1.382-1.71-2.78-2.594-4-.978-1.36-2.073-2.364-2.83-4-.27-.585-.636-1.52-.236-2.123a.93.93 0 01.708-.708c.684-.527 2.59.175 3.302.472 1.89.786 3.47 1.534 5.072 2.595.77.5 1.547 1.496 2.476 1.77h1.06c1.66.382 3.52.12 5.07.59 2.742.833 5.198 2.13 7.43 3.538 6.798 4.292 12.355 10.402 16.157 17.7.612 1.173.876 2.294 1.415 3.538 1.087 2.5 2.456 5.093 3.538 7.547 1.08 2.45 2.13 4.92 3.656 6.958.802 1.07 3.9 1.646 5.307 2.24.987.417 2.603.852 3.538 1.415 1.785 1.077 3.515 2.36 5.19 3.54.837.59 3.41 1.883 3.538 2.948z"></path>
      <path d="M144.91 12.798c-.865-.016-1.476.094-2.123.236v.118h.118c.412.848 1.14 1.393 1.65 2.123l1.18 2.476.118-.118c.73-.515 1.065-1.338 1.06-2.595-.293-.308-.336-.694-.59-1.062-.337-.49-1-.768-1.415-1.18z" fill-rule="evenodd"></path>
    </g>
    <path d="M194.855 91.708c0 2.97 2.347 4.972 4.972 4.972s4.972-2.002 4.972-4.972-2.347-4.972-4.972-4.972-4.972 2.002-4.972 4.972zm8.83 0c0 2.254-1.723 3.938-3.86 3.938-2.16 0-3.86-1.684-3.86-3.938s1.698-3.938 3.86-3.938c2.135 0 3.86 1.684 3.86 3.938zm-2.52 2.838h1.113l-1.63-2.492c.875-.093 1.537-.518 1.537-1.552 0-1.154-.73-1.63-2.134-1.63h-2.215v5.675h.955v-2.453h.888l1.485 2.453zm-2.374-3.25v-1.63h1.1c.57 0 1.26.106 1.26.77 0 .795-.623.862-1.34.862h-1.02z" fill="#e48e00" fill-rule="evenodd"></path>
  </symbol>
  <symbol xmlns="http://www.w3.org/2000/svg" preserveAspectRatio="xMidYMid" viewBox="0 0 161 60" id="nodejs">
    <path d="M140.304 24.194c-.345 0-.68.071-.977.239l-9.391 5.423a1.979 1.979 0 00-.978 1.715V42.4c0 .703.37 1.363.978 1.714l2.452 1.414c1.192.587 1.631.578 2.174.578 1.764 0 2.771-1.07 2.771-2.931V32.492c0-.151-.13-.26-.279-.26h-1.176c-.151 0-.28.111-.28.26v10.687c0 .825-.859 1.655-2.253.957l-2.55-1.495c-.09-.05-.159-.139-.159-.24V31.575c0-.102.069-.207.16-.259l9.372-5.404a.276.276 0 01.279 0l9.371 5.404c.09.054.16.154.16.26v10.827a.3.3 0 01-.14.259l-9.391 5.404a.289.289 0 01-.28 0l-2.412-1.436a.25.25 0 00-.24 0c-.665.378-.79.422-1.415.638-.153.054-.388.137.08.4l3.15 1.856c.3.174.635.26.978.26.348 0 .677-.084.977-.26l9.391-5.404a1.983 1.983 0 00.977-1.714V31.577a1.98 1.98 0 00-.977-1.715l-9.391-5.423a1.958 1.958 0 00-.977-.24zm2.513 7.737c-2.675 0-4.267 1.138-4.267 3.03 0 2.051 1.58 2.618 4.147 2.872 3.07.3 3.31.751 3.31 1.356 0 1.048-.836 1.495-2.811 1.495-2.482 0-3.028-.62-3.21-1.857-.022-.132-.124-.239-.26-.239h-1.22a.285.285 0 00-.278.279c0 1.58.86 3.45 4.965 3.45 2.972 0 4.686-1.164 4.686-3.21 0-2.024-1.385-2.57-4.267-2.952-2.91-.388-3.19-.574-3.19-1.256 0-.564.235-1.317 2.392-1.317 1.927 0 2.64.416 2.931 1.715a.275.275 0 00.26.222h1.219c.075 0 .147-.046.2-.1.05-.057.086-.122.08-.2-.19-2.237-1.681-3.29-4.687-3.29z" fill="#83cd29"></path>
    <path d="M85.092 10a.604.604 0 00-.3.08.604.604 0 00-.298.518v15.254c0 .15-.07.284-.2.36a.416.416 0 01-.419 0l-2.492-1.436a1.194 1.194 0 00-1.196 0l-9.95 5.742a1.225 1.225 0 00-.599 1.057V43.06a1.194 1.194 0 00.599 1.036l9.95 5.743a1.192 1.192 0 001.196 0l9.95-5.743a1.194 1.194 0 00.598-1.036V14.427c0-.436-.238-.845-.618-1.057l-5.922-3.31a.587.587 0 00-.3-.06zM21.086 24.337c-.19.007-.368.04-.538.14l-9.95 5.742A1.192 1.192 0 0010 31.255l.02 15.414c0 .215.111.414.3.518a.58.58 0 00.598 0l5.902-3.39c.374-.221.618-.608.618-1.036v-7.198c0-.43.225-.824.598-1.037l2.513-1.455a1.178 1.178 0 01.598-.16 1.175 1.175 0 01.598.16l2.511 1.454c.373.214.598.608.598 1.037v7.198c0 .428.25.817.618 1.036l5.902 3.39a.6.6 0 00.897-.518l.02-15.413a1.186 1.186 0 00-.597-1.037l-9.95-5.742a1.118 1.118 0 00-.538-.14h-.12zm89.408.14a1.189 1.189 0 00-.598.159l-9.95 5.743a1.194 1.194 0 00-.598 1.036V42.9c0 .432.243.823.618 1.037l9.87 5.625c.364.208.809.224 1.176.02l5.982-3.33a.588.588 0 00.02-1.036l-10.01-5.743a.644.644 0 01-.32-.539v-3.591c0-.215.134-.411.32-.518l3.11-1.795a.598.598 0 01.599 0l3.111 1.795a.596.596 0 01.3.518v2.831a.596.596 0 00.298.518.594.594 0 00.6 0l5.96-3.468a1.2 1.2 0 00.6-1.037v-2.771a1.197 1.197 0 00-.599-1.037l-9.89-5.743a1.186 1.186 0 00-.598-.16zm-29.75 8.574a.335.335 0 01.16.04l3.41 1.973a.31.31 0 01.16.26v3.947a.307.307 0 01-.16.26l-3.41 1.973a.303.303 0 01-.299 0l-3.41-1.974a.309.309 0 01-.16-.259v-3.948a.31.31 0 01.16-.26l3.41-1.973a.262.262 0 01.14-.04z" fill="#404137"></path>
    <path d="M50.975 24.416a1.194 1.194 0 00-.598.16l-9.95 5.722a1.225 1.225 0 00-.598 1.057V42.84a1.192 1.192 0 00.598 1.037l9.95 5.742a1.192 1.192 0 001.196 0l9.95-5.742a1.194 1.194 0 00.598-1.037V31.355c0-.43-.226-.843-.598-1.057l-9.95-5.723a1.183 1.183 0 00-.599-.16zm59.5 10.25c-.04 0-.084 0-.12.019l-1.914 1.116a.233.233 0 00-.12.2v2.193c0 .083.048.158.12.2l1.914 1.096a.208.208 0 00.22 0l1.913-1.096a.235.235 0 00.12-.2v-2.193a.235.235 0 00-.12-.2l-1.914-1.117c-.035-.02-.06-.02-.1-.02z" fill="#83cd29"></path>
  </symbol>
  <symbol xmlns="http://www.w3.org/2000/svg" preserveAspectRatio="xMidYMid" viewBox="0 0 120 60" id="npm">
    <path d="M14.186 12.134v30.602h25.472v5.13H60v-5.13h45.814V12.134z" fill="#cb3837"></path>
    <path d="M29.398 17.264H19.315v20.342h10.083V22.394h5.13v15.213h5.13V17.264zm15.4 0v25.472h10.26v-5.13H65.13V17.264zM60 32.476h-4.953V22.394H60zm20.342-15.212H70.26v20.342h10.083V22.394h5.13v15.213h5.13V22.394h5.13v15.213h5.13V17.264z" fill="#fff"></path>
  </symbol>
  <symbol xmlns="http://www.w3.org/2000/svg" preserveAspectRatio="xMidYMid" viewBox="0 0 256 256" id="js">
    <path d="M0 0h256v256H0V0z" fill="#F7DF1E"></path>
    <path d="M67.312 213.932l19.59-11.856c3.78 6.701 7.218 12.371 15.465 12.371 7.905 0 12.89-3.092 12.89-15.12v-81.798h24.057v82.138c0 24.917-14.606 36.259-35.916 36.259-19.245 0-30.416-9.967-36.087-21.996m85.07-2.576l19.588-11.341c5.157 8.421 11.859 14.607 23.715 14.607 9.969 0 16.325-4.984 16.325-11.858 0-8.248-6.53-11.17-17.528-15.98l-6.013-2.58c-17.357-7.387-28.87-16.667-28.87-36.257 0-18.044 13.747-31.792 35.228-31.792 15.294 0 26.292 5.328 34.196 19.247l-18.732 12.03c-4.125-7.389-8.591-10.31-15.465-10.31-7.046 0-11.514 4.468-11.514 10.31 0 7.217 4.468 10.14 14.778 14.608l6.014 2.577c20.45 8.765 31.963 17.7 31.963 37.804 0 21.654-17.012 33.51-39.867 33.51-22.339 0-36.774-10.654-43.819-24.574"></path>
  </symbol>
</svg>